<?xml version="1.0" encoding="utf-8" ?>
<svg xmlns="http://www.w3.org/2000/svg" xmlns:xlink="http://www.w3.org/1999/xlink" width="1164" height="1233" viewBox="0 0 1164 1233">
	<rect width="1164" height="1233" rx="15" ry="15" transform="matrix(1 0 0 1 0 0)" fill="rgb(73, 79, 229)"/>
	<path d="M390 0L330 13.117L276 39.3511L216 85.2606L168 150.846L138 222.989L126 295.133L126 445.979L48 445.979L30 452.537L12 465.654L0 485.33L0 511.564L18 544.356L48 564.032L126 577.149L126 675.527L138 701.761L168 727.995L210 747.67L240 747.67L282 721.436L294 741.112L324 773.904L354 800.138L408 813.255L438 813.255L474 806.697L528 773.904L570 721.436L606 741.112L642 747.67L678 734.553L714 708.319L732 662.41L732 577.149L774 570.59L804 564.032L828 550.915L840 537.798L852 505.005L846 478.771L834 459.096L804 445.979L726 445.979L726 295.133L720 229.548L678 137.729L630 78.7021L588 45.9096L516 13.117L450 0L390 0Z" fill-rule="nonzero" transform="matrix(1 0 0 1 156 203.314)" fill="rgb(255, 255, 255)"/>
	<path d="M125.5 445.979L125.5 295.092L137.516 222.851L167.561 150.599L215.639 84.9073L275.736 38.9234L329.835 12.6413L389.946 -0.5L450.049 -0.5L516.154 12.6379L588.261 45.4791L630.352 78.3428L678.428 137.463L720.49 229.417L726.5 295.11L726.5 445.979L726 445.979L726 445.479L804.105 445.479L834.345 458.701L846.469 478.58L852.52 505.038L840.436 538.062L828.313 551.314L804.177 564.505L774.092 571.082L732.077 577.643L732 577.149L732.5 577.149L732.5 662.504L714.412 708.637L678.237 734.999L642.044 748.186L605.831 741.589L569.76 721.875L570 721.436L570.39 721.749L528.335 774.286L474.181 807.172L438.045 813.755L407.94 813.755L353.763 800.595L323.65 774.262L293.598 741.413L281.573 721.697L282 721.436L282.265 721.86L240.143 748.17L209.889 748.17L167.724 728.418L137.59 702.066L125.5 675.636L125.5 577.149L126 577.149L125.917 577.642L47.8136 564.508L17.6216 544.706L-0.5 511.692L-0.5 485.189L11.625 465.309L29.7625 452.092L47.9117 445.479L126 445.479L126 445.979L125.5 445.979ZM126.5 446.479L48 446.479L48 445.979L48.1712 446.449L30.1712 453.007L30 452.537L30.2945 452.941L12.2945 466.058L12 465.654L12.4269 465.915L0.426872 485.59L0 485.33L0.5 485.33L0.5 511.564L0 511.564L0.43831 511.323L18.4383 544.116L18 544.356L18.2742 543.938L48.2742 563.614L48 564.032L48.0829 563.539L126.5 576.726L126.5 675.527L126 675.527L126.455 675.319L138.455 701.553L138 701.761L138.329 701.384L168.329 727.618L168 727.995L168.212 727.542L210.212 747.217L210 747.67L210 747.17L240 747.17L240 747.67L239.735 747.246L282.164 720.744L294.427 740.851L294 741.112L294.369 740.774L324.369 773.567L324 773.904L324.329 773.528L354.329 799.762L354 800.138L354.118 799.652L408.118 812.769L408 813.255L408 812.755L438 812.755L438 813.255L437.91 812.763L473.91 806.205L474 806.697L473.74 806.269L527.74 773.477L528 773.904L527.61 773.592L569.872 720.796L606.24 740.673L606 741.112L606.09 740.62L642.09 747.178L642 747.67L641.829 747.2L677.829 734.083L678 734.553L677.706 734.149L713.706 707.915L714 708.319L713.534 708.137L731.534 662.227L732 662.41L731.5 662.41L731.5 576.721L773.923 570.096L774 570.59L773.893 570.102L803.893 563.543L804 564.032L803.76 563.593L827.76 550.476L828 550.915L827.631 550.577L839.631 537.46L840 537.798L839.53 537.626L851.53 504.834L852 505.005L851.513 505.117L845.513 478.883L846 478.771L845.573 479.032L833.573 459.356L834 459.096L833.8 459.554L803.8 446.437L804 445.979L804 446.479L725.5 446.479L725.5 295.133L726 295.133L725.502 295.179L719.502 229.593L720 229.548L719.545 229.756L677.545 137.937L678 137.729L677.612 138.044L629.612 79.0176L630 78.7021L629.692 79.0962L587.692 46.3037L588 45.9096L587.793 46.3646L515.793 13.572L516 13.117L515.903 13.6074L449.903 0.490409L450 0L450 0.5L390 0.5L390 0L390.107 0.488464L330.107 13.6055L330 13.117L330.218 13.5668L276.218 39.8008L276 39.3511L276.304 39.7482L216.304 85.6577L216 85.2606L216.403 85.5559L168.403 151.141L168 150.846L168.462 151.038L138.462 223.181L138 222.989L138.493 223.071L126.493 295.215L126 295.133L126.5 295.133L126.5 445.979L126.5 446.479Z" fill-rule="nonzero" transform="matrix(1 0 0 1 156 203.314)" fill="rgb(73, 79, 229)"/>
	<path d="M12 0L0 19.6755L0 32.7926L12 52.4681L30 65.5851L72 85.2606L132 85.2606L180 65.5851L210 32.7926L210 19.6755L192 0L180 0L168 6.55851L156 19.6755L132 32.7926L108 39.3511L96 39.3511L72 32.7926L48 19.6755L36 6.55851L24 0L12 0Z" fill-rule="nonzero" transform="matrix(1 0 0 1 480 701.761)" fill="rgb(73, 79, 229)"/>
	<path d="M12 -0.5L24.1277 -0.5L36.3128 6.15965L48.3689 19.338L48 19.6755L48.2398 19.2368L72.2398 32.3538L72 32.7926L72.1318 32.3102L96.1318 38.8688L96 39.3511L96 38.8511L108 38.8511L108 39.3511L107.868 38.8688L131.868 32.3102L132 32.7926L131.76 32.3538L155.76 19.2368L156 19.6755L155.631 19.338L167.687 6.15965L179.872 -0.5L192.22 -0.5L210.5 19.4813L210.5 32.9868L180.293 66.0053L132.098 85.7606L71.8887 85.7606L29.7444 66.0175L11.625 52.8135L-0.5 32.933L-0.5 19.5351L11.7193 -0.5L12 -0.5ZM12 0.5L12 0L12.4269 0.260347L0.426872 19.9359L0 19.6755L0.5 19.6755L0.5 32.7926L0 32.7926L0.426872 32.5322L12.4269 52.2077L12 52.4681L12.2945 52.064L30.2945 65.181L30 65.5851L30.2121 65.1323L72.2121 84.8079L72 85.2606L72 84.7606L132 84.7606L132 85.2606L131.81 84.798L179.81 65.1225L180 65.5851L179.631 65.2476L209.631 32.4551L210 32.7926L209.5 32.7926L209.5 19.6755L210 19.6755L209.631 20.013L191.631 0.337496L192 0L192 0.5L180 0.5L180 0L180.24 0.438747L168.24 6.99726L168 6.55851L168.369 6.89601L156.313 20.0744L132.188 33.2594L108.067 39.8511L95.9329 39.8511L71.8116 33.2594L47.6872 20.0744L35.6311 6.89601L36 6.55851L35.7602 6.99726L23.7602 0.438747L24 0L24 0.5L12 0.5Z" fill-rule="nonzero" transform="matrix(1 0 0 1 480 701.761)" fill="rgb(73, 79, 229)"/>
	<path d="M18 0L6 6.55851L0 19.6755L0 72.1436L6 85.2606L18 91.8192L30 91.8192L42 85.2606L48 72.1436L48 19.6755L42 6.55851L30 0L18 0Z" fill-rule="nonzero" transform="matrix(1 0 0 1 702 570.59)" fill="rgb(73, 79, 229)"/>
	<path d="M-0.5 72.1436L-0.5 19.5666L5.61442 6.19944L17.8723 -0.5L30.1277 -0.5L42.3856 6.19944L48.5 19.5666L48.5 72.2525L42.3856 85.6197L30.1277 92.3192L17.8723 92.3192L5.61442 85.6197L-0.5 72.2525L-0.5 72.1436ZM0.5 72.1436L0 72.1436L0.454689 71.9356L6.45469 85.0527L6 85.2606L6.23979 84.8219L18.2398 91.3804L18 91.8192L18 91.3192L30 91.3192L30 91.8192L29.7602 91.3804L41.7602 84.8219L42 85.2606L41.5453 85.0527L47.5453 71.9356L48 72.1436L47.5 72.1436L47.5 19.6755L48 19.6755L47.5453 19.8835L41.5453 6.7665L42 6.55851L41.7602 6.99726L29.7602 0.438747L30 0L30 0.5L18 0.5L18 0L18.2398 0.438747L6.23979 6.99726L6 6.55851L6.45469 6.7665L0.454689 19.8835L0 19.6755L0.5 19.6755L0.5 72.1436Z" fill-rule="nonzero" transform="matrix(1 0 0 1 702 570.59)" fill="rgb(73, 79, 229)"/>
	<path d="M24 0L12 6.55851L6 13.117L0 26.234L0 78.7021L6 91.8192L12 98.3777L24 98.3777L48 98.3777L54 91.8192L60 78.7021L60 19.6755L48 6.55851L36 0L30 0L24 0Z" fill-rule="nonzero" transform="matrix(1 0 0 1 408 564.032)" fill="rgb(73, 79, 229)"/>
	<path d="M-0.5 78.7021L-0.5 26.1251L5.57802 12.8375L11.6872 6.15965L23.8723 -0.5L30 -0.5L36.1277 -0.5L48.3128 6.15965L60.5 19.4813L60.5 78.8111L54.422 92.0986L48.2202 98.8777L24 98.8777L11.7798 98.8777L5.57802 92.0986L-0.5 78.8111L-0.5 78.7021ZM0.5 78.7021L0 78.7021L0.454689 78.4941L6.45469 91.6112L6 91.8192L6.36891 91.4817L12.3689 98.0402L12 98.3777L12 97.8777L24 97.8777L48 97.8777L48 98.3777L47.6311 98.0402L53.6311 91.4817L54 91.8192L53.5453 91.6112L59.5453 78.4941L60 78.7021L59.5 78.7021L59.5 19.6755L60 19.6755L59.6311 20.013L47.6311 6.89601L48 6.55851L47.7602 6.99726L35.7602 0.438747L36 0L36 0.5L30 0.5L24 0.5L24 0L24.2398 0.438747L12.2398 6.99726L12 6.55851L12.3689 6.89601L6.36891 13.4545L6 13.117L6.45469 13.325L0.454689 26.442L0 26.234L0.5 26.234L0.5 78.7021Z" fill-rule="nonzero" transform="matrix(1 0 0 1 408 564.032)" fill="rgb(73, 79, 229)"/>
</svg>
