<svg xmlns="http://www.w3.org/2000/svg" xmlns:xlink="http://www.w3.org/1999/xlink" width="48" height="48" viewBox="0 0 48 48">
	<defs>
		<clipPath id="clipPath0792304743">
			<path transform="matrix(1 0 0 1 0 0)" d="M0 0L48 0L48 48L0 48L0 0Z" fill-rule="nonzero"/>
		</clipPath>
	</defs>
	<g clip-path="url(#clipPath0792304743)">
		<path transform="matrix(1 0 0 1 3.14819 0)" d="M21.9018 0.04C24.5218 0 27.1218 0.02 29.7218 0C29.8818 3.06 30.9818 6.18 33.2218 8.34C35.4618 10.56 38.6218 11.58 41.7018 11.92L41.7018 19.98C38.8218 19.88 35.9218 19.28 33.3018 18.04C32.1618 17.52 31.1018 16.86 30.0618 16.18C30.0418 22.02 30.0818 27.86 30.0218 33.68C29.8618 36.48 28.9418 39.26 27.3218 41.56C24.7018 45.4 20.1618 47.9 15.5018 47.98C12.6418 48.14 9.7818 47.36 7.3418 45.92C3.3018 43.54 0.461803 39.18 0.0418034 34.5C0.0018034 33.5 -0.0181966 32.5 0.0218034 31.52C0.381804 27.72 2.2618 24.08 5.1818 21.6C8.5018 18.72 13.1418 17.34 17.4818 18.16C17.5218 21.12 17.4018 24.08 17.4018 27.04C15.4218 26.4 13.1018 26.58 11.3618 27.78C10.1018 28.6 9.1418 29.86 8.6418 31.28C8.2218 32.3 8.3418 33.42 8.3618 34.5C8.8418 37.78 12.0018 40.54 15.3618 40.24C17.6018 40.22 19.7418 38.92 20.9018 37.02C21.2818 36.36 21.7018 35.68 21.7218 34.9C21.9218 31.32 21.8418 27.76 21.8618 24.18C21.8818 16.12 21.8418 8.08 21.9018 0.04Z" fill-rule="nonzero" fill="rgb(76, 123, 255)"/>
	</g>
</svg>
