<svg xmlns="http://www.w3.org/2000/svg" xmlns:xlink="http://www.w3.org/1999/xlink" width="228.3594" height="144.9058" viewBox="0 0 228.3594 144.9058">
	<path d="M79.5529 0L0 140L63.2471 140L126 29.8932L79.5529 0Z" fill-rule="nonzero" transform="matrix(1 0 0 1 0.859375 0.706299)" fill="rgb(0, 91, 255)"/>
	<path d="M-0.434718 139.753L79.3792 -0.706391L126.669 29.7292L63.5376 140.5L-0.859203 140.5L-0.434718 139.753ZM0.434718 140.247L0 140L0 139.5L63.2471 139.5L63.2471 140L62.8127 139.752L125.566 29.6457L126 29.8932L125.729 30.3137L79.2823 0.420447L79.5529 0L79.9877 0.247022L0.434718 140.247Z" fill-rule="nonzero" transform="matrix(1 0 0 1 0.859375 0.706299)" fill="rgb(0, 91, 255)"/>
	<path d="M28.295 0L0 49.28L16.8777 112L69 112L28.295 0Z" fill-rule="nonzero" transform="matrix(1 0 0 1 99.8594 31.7063)" fill="rgb(0, 184, 28)"/>
	<path d="M28.7649 -0.170789L69.7137 112.5L16.4945 112.5L-0.536541 49.2103L28.3973 -1.18233L28.7649 -0.170789ZM27.825 0.170789L28.295 0L28.7286 0.248964L0.433609 49.529L0 49.28L0.482824 49.1501L17.3605 111.87L16.8777 112L16.8777 111.5L69 111.5L69 112L68.5301 112.171L27.825 0.170789Z" fill-rule="nonzero" transform="matrix(1 0 0 1 99.8594 31.7063)" fill="rgb(0, 184, 28)"/>
	<path d="M17.5304 0L0 30.5L20.9391 88L56 25L17.5304 0Z" fill-rule="nonzero" transform="matrix(1 0 0 1 148.859 55.7063)" fill="rgb(239, 125, 19)"/>
	<path d="M17.8029 -0.419248L56.6639 24.8352L20.8438 89.1995L-0.549413 30.4525L17.3601 -0.707005L17.8029 -0.419248ZM17.258 0.419248L17.5304 0L17.9639 0.24916L0.433497 30.7492L0 30.5L0.469818 30.3289L21.4089 87.8289L20.9391 88L20.5022 87.7569L55.5631 24.7569L56 25L55.7275 25.4192L17.258 0.419248Z" fill-rule="nonzero" transform="matrix(1 0 0 1 148.859 55.7063)" fill="rgb(239, 125, 19)"/>
	<path d="M12.8169 0L0 23.315L21.6901 63L35 63L35 61.5118L12.8169 0Z" fill-rule="nonzero" transform="matrix(1 0 0 1 192.859 80.7063)" fill="rgb(228, 46, 30)"/>
	<path d="M34.5297 61.6814L12.3466 0.169623L12.8169 0L13.2551 0.240868L0.438158 23.5558L0 23.315L0.438744 23.0752L22.1289 62.7602L21.6901 63L21.6901 62.5L35 62.5L35 63L34.5 63L34.5 61.5118L35 61.5118L34.5297 61.6814ZM35.5 61.4244L35.5 63.5L21.3936 63.5L-0.570188 23.3143L12.9118 -1.21061L35.4703 61.3422L35.5 61.4244Z" fill-rule="nonzero" transform="matrix(1 0 0 1 192.859 80.7063)" fill="rgb(228, 46, 30)"/>
</svg>
