<svg xmlns="http://www.w3.org/2000/svg" xmlns:xlink="http://www.w3.org/1999/xlink" width="48" height="48" viewBox="0 0 48 48">
	<defs>
		<clipPath id="clipPath0573874681">
			<path transform="matrix(1 0 0 1 0 0)" d="M0 0L48 0L48 48L0 48L0 0Z" fill-rule="nonzero"/>
		</clipPath>
	</defs>
	<g clip-path="url(#clipPath0573874681)">
		<path transform="matrix(1 0 0 1 -1.66893e-06 8.83419)" d="M42.6198 10.9674C43.6768 10.9674 44.5366 11.8242 44.5366 12.8852C44.5366 13.9404 43.6768 14.8012 42.6198 14.8012C41.5646 14.8012 40.7028 13.9404 40.7028 12.8852C40.7028 11.8242 41.5646 10.9672 42.6198 10.9674ZM47.3996 17.0598L26.5836 17.0598L26.5836 15.1408L34.8836 15.1408L34.8836 10.684L29.1098 10.684L29.1098 9.14801L34.8834 9.14801L34.8834 7.30121L29.8674 7.30121L29.8674 7.70801L26.5838 7.70801L26.5838 1.91241L29.8674 1.91241L29.8674 2.61181C30.8564 2.49041 32.7934 2.24901 34.9024 2.02061L34.9024 0.369207L38.6068 0.369207L38.6068 1.65081C40.4566 1.48941 42.1128 1.38841 43.0288 1.42841C46.0068 1.57161 47.9186 1.99161 47.9988 3.97441C48.07 5.95241 45.15 7.78301 45.15 7.78301L44.2482 6.91541L44.2482 7.30121L38.625 7.30121L38.625 9.14781L45.083 9.14781L45.083 10.6838L38.625 10.6838L38.625 15.1408L47.3996 15.1408L47.3996 17.0598ZM43.0518 5.76381L43.0288 5.74081C43.0288 5.74081 45.7732 4.22181 43.7142 3.19681C41.9876 2.33681 32.645 3.80801 29.8674 4.44821L29.8674 5.76381L43.0518 5.76381ZM3.7644 3.99901C4.8674 3.99901 5.7614 3.10101 5.7614 1.99901C5.7614 0.892807 4.8674 7.62939e-06 3.7644 7.62939e-06C3.21156 -0.00143242 2.73952 0.193162 2.34831 0.583792C1.95709 0.974421 1.76179 1.44616 1.7624 1.99901C1.7624 3.10101 2.655 3.99901 3.7644 3.99901ZM10.5832 2.27981C11.0872 1.40701 11.3266 0.840807 11.3266 0.840807L8.3946 0.0162067C8.3946 0.0162067 7.2136 3.87501 5.1054 5.67181C5.1054 5.67181 7.1444 6.85121 7.1244 6.81821C7.40272 6.5413 7.67234 6.25615 7.93325 5.96278C8.19416 5.66941 8.44588 5.36835 8.6884 5.05961C9.1574 4.85621 9.6054 4.66361 10.0472 4.48441C9.5042 5.45841 8.6284 6.92241 7.7516 7.84621L8.9872 8.92321C8.9872 8.92321 9.8268 8.1166 10.7456 7.14181L11.7948 7.14181L11.7948 8.94041L7.7114 8.94041L7.7114 10.3812L11.7946 10.3812L11.7946 13.8282C11.7446 13.8282 11.6904 13.8282 11.6382 13.8242C11.1902 13.803 10.488 13.729 10.2134 13.2942C9.8778 12.767 10.1254 11.795 10.1442 11.2028L7.3216 11.2028L7.2224 11.2548C7.2224 11.2548 6.1884 15.8832 10.2004 15.779C13.959 15.8832 16.1092 14.733 17.1454 13.9434L17.5582 15.4724L19.8748 14.5074L18.3048 10.6708L16.4228 11.2548L16.7756 12.5696C16.2926 12.9314 15.7396 13.201 15.1382 13.3964L15.1382 10.381L19.1282 10.381L19.1282 8.94021L15.1382 8.94021L15.1382 7.14161L19.1442 7.14161L19.1442 5.70161L12.0302 5.70161C12.5432 5.07941 12.948 4.50521 13.0492 4.14161L11.8116 3.80581C17.1322 1.90201 20.0932 2.22861 20.0672 5.35181L20.0672 13.5774C20.0672 13.5774 20.3808 16.4022 17.1452 16.1988L15.3938 15.8228L14.9798 17.4842C14.9798 17.4842 22.5442 19.6466 23.1624 13.835C23.7816 8.02341 23.009 4.31981 23.009 4.31981C23.009 4.31981 22.3188 -1.04499 10.5832 2.27981ZM0.116402 15.4726L3.2898 17.4536C5.4832 12.691 5.3428 13.3222 5.8938 11.6136C6.4602 9.86621 6.5844 8.53361 5.6214 7.56761C4.387 6.32821 4.2526 6.21301 2.418 4.85121L1.0974 6.87821L3.5302 8.39341C3.5302 8.39341 5.1584 9.22401 4.385 10.774C3.6616 12.249 0.116402 15.4726 0.116402 15.4726ZM39.9964 29.1694C39.9964 29.1694 39.9592 30.2154 38.6556 30.2154C37.4772 30.2154 37.383 29.3928 37.383 29.3928C36.886 29.992 36.1416 30.3026 35.2438 30.3026C33.7226 30.3026 32.6516 29.2756 32.6516 27.7234C32.6516 26.1514 33.7668 25.1634 35.4482 25.1634C36.2146 25.1634 36.8982 25.4558 37.2998 25.9708C37.313 25.8296 37.327 25.6984 37.327 25.5772C37.327 24.4528 36.7086 23.9518 35.307 23.9518C34.6306 23.9518 33.9752 24.049 33.2798 24.2334C33.5012 23.7954 33.6646 23.4748 33.874 23.3186C34.1144 23.1242 34.7328 23.037 35.7578 23.037C38.2958 23.037 39.2418 23.8888 39.2418 25.8928L39.2418 28.2976C39.2418 28.9298 39.3078 29.1694 39.9964 29.1694ZM37.342 27.6794C37.342 26.7164 36.831 26.1854 36.0664 26.1854C35.2578 26.1854 34.7328 26.7504 34.7328 27.7044C34.7328 28.6384 35.2878 29.2274 36.0394 29.2274C36.8158 29.2274 37.342 28.6774 37.342 27.6794ZM47.8832 26.6774C47.8832 28.983 46.4984 30.3316 44.326 30.3316C42.1346 30.3316 40.7728 28.983 40.7728 26.6774C40.7728 24.3606 42.1346 23.027 44.326 23.027C46.4984 23.027 47.8832 24.3708 47.8832 26.6774ZM45.7098 26.6774C45.7098 24.9388 45.2358 24.078 44.3258 24.078C43.379 24.078 42.9382 24.9388 42.9382 26.6774C42.9382 28.4098 43.379 29.2754 44.326 29.2754C45.26 29.2754 45.7098 28.4098 45.7098 26.6774ZM31.4472 26.5892C31.4472 28.9298 30.1404 30.3026 28.2938 30.3026C27.4472 30.3026 26.6826 29.976 26.2006 29.3626C26.2006 29.3626 25.9842 30.2154 24.877 30.2154C23.5002 30.2154 23.5482 29.1694 23.5482 29.1694C24.3218 29.2024 24.2998 28.7404 24.2998 28.2974L24.2998 22.525C24.2998 21.8146 24.1514 21.566 23.446 21.552C23.4732 21.3376 23.6014 20.4768 24.8038 20.4768C26.435 20.4768 26.3268 22.3066 26.3268 22.3066L26.3268 23.8786C26.7848 23.3426 27.43 23.0902 28.3078 23.0902C30.2326 23.0902 31.4472 24.3796 31.4472 26.5892ZM29.2598 26.7504C29.2598 24.9538 28.7166 24.039 27.7366 24.039C26.858 24.039 26.2566 24.8326 26.2566 26.2484L26.2566 26.9688C26.2566 28.4098 26.887 29.2024 27.7828 29.2024C28.7368 29.2024 29.2598 28.3756 29.2598 26.7504ZM22.7748 26.6774C22.7748 28.983 21.3988 30.3316 19.2136 30.3316C17.0262 30.3316 15.6684 28.983 15.6684 26.6774C15.6684 24.3606 17.0262 23.027 19.2136 23.027C21.399 23.027 22.7748 24.3708 22.7748 26.6774ZM20.6084 26.6774C20.6084 24.9388 20.1364 24.078 19.2136 24.078C18.2796 24.078 17.8388 24.9388 17.8388 26.6774C17.8388 28.4098 18.2798 29.2754 19.2136 29.2754C20.1516 29.2754 20.6084 28.4098 20.6084 26.6774ZM8.6294 21.2454C8.0934 21.4018 7.0492 21.4398 5.5262 21.4398C3.6762 21.4398 2.448 21.3618 1.8176 21.3618C0.7786 21.3618 0.3668 21.6302 0 22.6802C0.6012 22.4768 1.3458 22.4628 2.2706 22.4628C2.973 22.4628 3.0922 22.549 3.0922 23.051L3.0922 28.8578C3.0922 29.422 3.3278 30.2156 4.5432 30.2156C5.964 30.2156 6.2124 29.1636 6.2124 29.1636C5.502 29.1496 5.3628 28.901 5.3628 28.1906L5.3628 23.0698C5.3628 22.5348 5.5652 22.5108 6.3048 22.5108C6.5552 22.5108 6.7236 22.5248 6.8258 22.5248C7.9158 22.5248 8.2024 22.3154 8.6294 21.2454ZM14.89 29.1694C14.89 29.1694 14.854 30.2154 13.5572 30.2154C12.4452 30.2154 12.2766 29.3928 12.2766 29.3928C11.7806 29.992 11.0352 30.3026 10.1454 30.3026C8.6144 30.3026 7.5462 29.2756 7.5462 27.7234C7.5462 26.1514 8.6602 25.1634 10.3448 25.1634C11.1134 25.1634 11.7996 25.4558 12.1964 25.9708C12.2036 25.8296 12.2176 25.6984 12.2176 25.5772C12.2176 24.4528 11.6074 23.9518 10.2036 23.9518C9.5272 23.9518 8.8698 24.049 8.1736 24.2334C8.3998 23.7954 8.5582 23.4748 8.7626 23.3186C9.0212 23.1242 9.6284 23.037 10.6564 23.037C13.1864 23.037 14.1484 23.8888 14.1484 25.8928L14.1484 28.2976C14.1484 28.9298 14.2036 29.1694 14.89 29.1694ZM12.2376 27.6794C12.2376 26.7164 11.7266 26.1854 10.962 26.1854C10.1594 26.1854 9.6284 26.7504 9.6284 27.7044C9.6284 28.6384 10.1864 29.2274 10.931 29.2274C11.7096 29.2274 12.2376 28.6774 12.2376 27.6794Z" fill-rule="nonzero" fill="rgb(76, 123, 255)"/>
	</g>
</svg>
