<svg xmlns="http://www.w3.org/2000/svg" xmlns:xlink="http://www.w3.org/1999/xlink" width="24"
                    height="24" viewBox="0 0 24 24">
                    <defs>
                        <clipPath id="clipPath9043785171">
                            <path transform="matrix(1 0 0 1 0 0)" d="M0 0L24 0L24 24L0 24L0 0Z" fill-rule="nonzero" />
                        </clipPath>
                    </defs>
                    <g clip-path="url(#clipPath9043785171)">
                        <path transform="matrix(1 0 0 1 2.25 2.25)"
                            d="M9.75 -0.75C9.33579 -0.75 9 -0.41421 9 0L9 2.25C9 2.66421 9.33579 3 9.75 3C10.1642 3 10.5 2.66421 10.5 2.25L10.5 0C10.5 -0.41421 10.1642 -0.75 9.75 -0.75ZM2.32529 3.38596C2.0324 3.09306 2.0324 2.61819 2.32529 2.32529C2.61819 2.0324 3.09306 2.0324 3.38595 2.32529L4.97689 3.91623C5.26978 4.20912 5.26978 4.684 4.97689 4.97689C4.684 5.26978 4.20912 5.26978 3.91623 4.97689L2.32529 3.38596ZM17.1747 2.3253C16.8818 2.0324 16.4069 2.0324 16.114 2.3253L14.5231 3.91623C14.2302 4.20912 14.2302 4.684 14.5231 4.97689C14.816 5.26978 15.2909 5.26978 15.5838 4.97689L17.1747 3.38596C17.4676 3.09306 17.4676 2.61819 17.1747 2.3253ZM-0.75 9.75C-0.75 10.1642 -0.41421 10.5 0 10.5L2.25 10.5C2.66421 10.5 3 10.1642 3 9.75C3 9.33579 2.66421 9 2.25 9L0 9C-0.41421 9 -0.75 9.33579 -0.75 9.75ZM16.5 9.75C16.5 10.1642 16.8358 10.5 17.25 10.5L19.5 10.5C19.9142 10.5 20.25 10.1642 20.25 9.75C20.25 9.33579 19.9142 9 19.5 9L17.25 9C16.8358 9 16.5 9.33579 16.5 9.75ZM3.91623 14.5231C4.20912 14.2302 4.684 14.2302 4.97689 14.5231C5.26978 14.816 5.26978 15.2909 4.97689 15.5838L3.38595 17.1747C3.09306 17.4676 2.61819 17.4676 2.32529 17.1747C2.0324 16.8818 2.0324 16.4069 2.32529 16.114L3.91623 14.5231ZM14.5231 15.5838C14.2302 15.2909 14.2302 14.816 14.5231 14.5231C14.816 14.2302 15.2909 14.2302 15.5838 14.5231L17.1747 16.114C17.4676 16.4069 17.4676 16.8818 17.1747 17.1747C16.8818 17.4676 16.4069 17.4676 16.114 17.1747L14.5231 15.5838ZM9.75 16.5C9.33579 16.5 9 16.8358 9 17.25L9 19.5C9 19.9142 9.33579 20.25 9.75 20.25C10.1642 20.25 10.5 19.9142 10.5 19.5L10.5 17.25C10.5 16.8358 10.1642 16.5 9.75 16.5Z"
                            fill-rule="evenodd" fill="rgb(255, 107, 154)" />
                        <path transform="matrix(1 0 0 1 8.25 8.25)"
                            d="M3.75 -0.75Q4.66502 -0.75 5.50183 -0.39606Q6.30953 -0.0544341 6.93198 0.56802Q7.55443 1.19047 7.89606 1.99817Q8.25 2.83498 8.25 3.75Q8.25 4.66502 7.89606 5.50183Q7.55443 6.30953 6.93198 6.93198Q6.30953 7.55443 5.50183 7.89606Q4.66502 8.25 3.75 8.25Q2.83498 8.25 1.99817 7.89606Q1.19047 7.55443 0.56802 6.93198Q-0.0544344 6.30953 -0.39606 5.50183Q-0.75 4.66502 -0.75 3.75Q-0.75 2.83498 -0.39606 1.99817Q-0.0544342 1.19047 0.56802 0.56802Q1.19047 -0.0544342 1.99817 -0.39606Q2.83498 -0.75 3.75 -0.75ZM3.75 0.75Q3.13915 0.75 2.58249 0.985447Q2.04426 1.2131 1.62868 1.62868Q1.2131 2.04426 0.985447 2.58249Q0.75 3.13915 0.75 3.75Q0.75 4.36085 0.985447 4.91751Q1.2131 5.45574 1.62868 5.87132Q2.04426 6.2869 2.58249 6.51455Q3.13915 6.75 3.75 6.75Q4.36085 6.75 4.91751 6.51455Q5.45574 6.2869 5.87132 5.87132Q6.2869 5.45574 6.51455 4.91751Q6.75 4.36085 6.75 3.75Q6.75 3.13915 6.51455 2.58249Q6.2869 2.04426 5.87132 1.62868Q5.45574 1.2131 4.91751 0.985447Q4.36085 0.75 3.75 0.75Z"
                            fill-rule="nonzero" fill="rgb(255, 107, 154)" />
                    </g>
                </svg>