<?xml version="1.0" encoding="utf-8" ?>
<svg xmlns="http://www.w3.org/2000/svg" xmlns:xlink="http://www.w3.org/1999/xlink" width="1362.9941" height="1201.48" viewBox="0 0 1362.9941 1201.48">
	<path d="M208.989 0L0 1173.03L505.618 1173.03L606.742 546.067L377.528 546.067L175.281 316.854L680.899 316.854L714.607 47.191L1233.71 546.067L923.596 546.067L808.989 1173.03L1186.52 1173.03L1361.8 215.73L1078.65 215.73L1105.62 0L208.989 0Z" fill-rule="nonzero" transform="matrix(1 0 0 1 0.59668 7.72168)" fill="rgb(43, 99, 234)"/>
	<path d="M-0.492249 1172.95L208.57 -0.5L1106.18 -0.5L1079.15 215.792L1078.65 215.73L1078.65 215.23L1362.4 215.23L1186.93 1173.53L808.389 1173.53L923.179 545.567L1233.71 545.567L1233.71 546.067L1233.36 546.428L714.26 47.5515L714.607 47.191L715.103 47.253L681.34 317.354L175.281 317.354L175.281 316.854L175.656 316.523L377.903 545.737L377.528 546.067L377.528 545.567L607.329 545.567L506.044 1173.53L-0.596954 1173.53L-0.492249 1172.95ZM0.492249 1173.12L0 1173.03L0 1172.53L505.618 1172.53L505.618 1173.03L505.124 1172.95L606.248 545.988L606.742 546.067L606.742 546.567L377.302 546.567L174.173 316.354L680.899 316.354L680.899 316.854L680.403 316.792L714.234 46.1396L1234.95 546.567L923.596 546.567L923.596 546.067L924.087 546.157L809.481 1173.12L808.989 1173.03L808.989 1172.53L1186.52 1172.53L1186.52 1173.03L1186.03 1172.94L1361.31 215.64L1361.8 215.73L1361.8 216.23L1078.09 216.23L1105.12 -0.0620174L1105.62 0L1105.62 0.5L208.989 0.5L208.989 0L209.481 0.0876995L0.492249 1173.12Z" fill-rule="nonzero" transform="matrix(1 0 0 1 0.59668 7.72168)" fill="rgb(43, 99, 234)"/>
	<path d="M505.618 0L458.427 276.404L0 276.404L175.281 492.135L411.236 492.135L316.854 1139.33L606.742 1139.33L721.348 492.135L1065.17 492.135L505.618 0Z" fill-rule="nonzero" transform="matrix(1 0 0 1 196.101 61.6543)" fill="rgb(239, 241, 243)"/>
	<path d="M316.359 1139.25L410.741 492.063L411.236 492.135L411.236 492.635L175.043 492.635L-1.05049 275.904L458.427 275.904L458.427 276.404L457.934 276.32L505.276 -0.966817L1066.49 492.635L721.348 492.635L721.348 492.135L721.841 492.222L607.161 1139.83L316.276 1139.83L316.359 1139.25ZM317.349 1139.4L316.854 1139.33L316.854 1138.83L606.742 1138.83L606.742 1139.33L606.249 1139.24L720.929 491.635L1065.17 491.635L1065.17 492.135L1064.84 492.51L505.288 0.375446L505.618 0L506.111 0.0841482L458.849 276.904L0 276.904L0 276.404L0.388057 276.089L175.669 491.82L175.281 492.135L175.281 491.635L411.814 491.635L317.349 1139.4Z" fill-rule="nonzero" transform="matrix(1 0 0 1 196.101 61.6543)" fill="rgb(239, 241, 243)"/>
	<path d="M26.9663 0L0 222.472L289.888 222.472L26.9663 0Z" fill-rule="nonzero" transform="matrix(1 0 0 1 1065.77 0.980469)" fill="rgb(4, 209, 243)"/>
	<path d="M27.4627 0.0601657L0.496367 222.532L0 222.472L0 221.972L289.888 221.972L289.888 222.472L289.565 222.854L26.6433 0.381693L26.9663 0L27.4627 0.0601657ZM26.5815 -0.980578L291.253 222.972L-0.564266 222.972L26.4699 -0.0601657L26.5815 -0.980578Z" fill-rule="nonzero" transform="matrix(1 0 0 1 1065.77 0.980469)" fill="rgb(4, 209, 243)"/>
</svg>
