<svg xmlns="http://www.w3.org/2000/svg" xmlns:xlink="http://www.w3.org/1999/xlink" width="62" height="65" viewBox="0 0 62 65">
	<defs>
		<filter id="filter9983298708" filterUnits="userSpaceOnUse" color-interpolation-filters="sRGB">
			<feComponentTransfer in="SourceAlpha" result="componentTransfer2593310027">
				<feFuncR type="linear" slope="0" intercept="0"/>
				<feFuncG type="linear" slope="0" intercept="0"/>
				<feFuncB type="linear" slope="0" intercept="0"/>
				<feFuncA type="linear" slope="10000" intercept="0"/>
			</feComponentTransfer>
			<feComponentTransfer in="componentTransfer2593310027" result="componentTransfer1868022606">
				<feFuncA type="linear" slope="0.2" intercept="0"/>
			</feComponentTransfer>
			<feOffset dx="0" dy="4" in="componentTransfer1868022606" result="offset6450147138"/>
			<feGaussianBlur stdDeviation="2" in="offset6450147138" result="gaussianBlur3257097271"/>
			<feComponentTransfer in="SourceAlpha" result="componentTransfer3331757056">
				<feFuncR type="linear" slope="0" intercept="0"/>
				<feFuncG type="linear" slope="0" intercept="0"/>
				<feFuncB type="linear" slope="0" intercept="0"/>
				<feFuncA type="linear" slope="10000" intercept="0"/>
			</feComponentTransfer>
			<feComponentTransfer in="componentTransfer3331757056" result="componentTransfer0231392991">
				<feFuncA type="linear" slope="0.2" intercept="0"/>
			</feComponentTransfer>
			<feOffset dx="0" dy="4" in="componentTransfer0231392991" result="offset6078553583"/>
			<feGaussianBlur stdDeviation="2" in="offset6078553583" result="gaussianBlur1094297311"/>
			<feMerge>
				<feMergeNode in="gaussianBlur3257097271"/>
				<feMergeNode in="gaussianBlur1094297311"/>
				<feMergeNode in="SourceGraphic"/>
			</feMerge>
		</filter>
	</defs>
	<g filter="url(#filter9983298708)">
		<path transform="matrix(1 0 0 1 4 0)" d="M13.5 0L12 1L11 2L10.5 2L11 5L12 7L13.5 8L16 7.5L18 6L18 2L17 1L16 0L15 0L13.5 0ZM24 1L22 2L22 6L24 7L45 7L46.5 8L46.5 55.5L49.5 57L52.5 57L54 55L54 6.5L54 5L52.5 3L51 1L24 1ZM5 2L2 2C0.768695 2.18289 0.541756 2.70009 0 3.5L0 55L1 56L2 57L5.5 57L7 55L7 4L6 3L5 2ZM26 11L24 12.5L24 18L12 18L11 20.5L11.5 23L13.5 25L24 25.5L24 55L26 57L28.5 57L30.5 55.5L30.5 25L41 25L43.5 23.5L43.5 20L42 18L30.5 18L30.5 12.5L28.5 11L26 11ZM40 30.5L37.5 30.5L35 33L35 55L37 57L40 57L42 55L42 33L40 30.5ZM17 30.5L13.5 30.5L12 33L12 55.5L14 57L17 57L18.5 55L18.5 33L17 30.5Z" fill-rule="nonzero" fill="rgb(250, 227, 32)"/>
	</g>
</svg>
