<svg xmlns="http://www.w3.org/2000/svg" xmlns:xlink="http://www.w3.org/1999/xlink" width="48" height="48" viewBox="0 0 48 48">
	<defs>
		<clipPath id="clipPath9900751325">
			<path transform="matrix(1 0 0 1 0 0)" d="M0 0L48 0L48 48L0 48L0 0Z" fill-rule="nonzero"/>
		</clipPath>
	</defs>
	<g clip-path="url(#clipPath9900751325)">
		<path transform="matrix(1 0 0 1 0 0)" d="M11.442 0C4.502 0 0 4.5 0 11.438L0 36.56C0 43.502 4.504 48 11.442 48L36.562 48C43.502 48 48 43.5 48 36.562L48 11.44C48 4.498 43.5 0 36.562 0L11.442 0ZM15.37 8.156C14.828 9.616 14.37 11.024 14.01 12.376L23.184 12.376C24.274 12.364 24.074 14.718 24.074 14.718L18.768 14.718C18.7721 15.9845 18.7554 17.2508 18.7181 18.5168C18.6807 19.7828 18.6227 21.0479 18.544 22.312L23.968 22.312C24.744 22.358 24.754 24.814 24.754 24.844L18.366 24.844C18.3121 25.5581 18.2169 26.2667 18.0804 26.9698C17.944 27.6728 17.7671 28.3656 17.55 29.048L19.064 27.84C19.968 28.752 22.088 31.264 22.876 32.194C23.822 33.556 23.002 36.356 23.002 36.356L17.414 29.592C16.108 34.628 13.724 36.806 13.724 36.806C12.678 37.742 10.564 38.446 8.444 37.838C12.88 34.378 15.324 30.004 15.778 24.844L8.982 24.844C8.982 24.814 9.376 22.358 10.594 22.312L16.014 22.312C16.062 21.672 16.186 15.804 16.186 14.718L13.196 14.718C12.924 15.53 12.88 15.612 12.66 16.224C11.472 18.414 9.454 18.468 8.846 18.534C10.658 14.892 11.678 11.334 12.028 10.406C12.878 8.158 15.37 8.156 15.37 8.156ZM26.156 12L38.91 12L38.91 34.66L33.764 34.66L29.396 37.406L28.594 34.66L26.156 34.66L26.156 12ZM28.782 14.438L28.782 32.158L30.028 32.158L30.554 34.032L33.464 32.156L36.376 32.156L36.376 14.436L28.782 14.438Z" fill-rule="nonzero" fill="rgb(76, 123, 255)"/>
	</g>
</svg>
